<?xml version="1.0" encoding="UTF-8"?>
<svg width="38px" height="28px" viewBox="0 0 38 28" version="1.1" xmlns="http://www.w3.org/2000/svg" xmlns:xlink="http://www.w3.org/1999/xlink">
    <!-- Generator: Sketch 60 (88103) - https://sketch.com -->
    <title>cerah</title>
    <desc>Created with Sketch.</desc>
    <g id="Page-1" stroke="none" stroke-width="1" fill="none" fill-rule="evenodd">
        <g id="Dashboard" transform="translate(-300.000000, -133.000000)" fill-rule="nonzero">
            <g id="bound">
                <g id="Welcome" transform="translate(300.000000, 133.000000)">
                    <g id="cerah">
                        <polygon id="Path" fill="#FF9000" points="19 14 22 11 19 8 19 3 14 3 11 0 8 3 3 3 3 8 0 11 3 14 3 19 8 19 11 22 14 19 19 19"></polygon>
                        <path d="M5,11 C5,14.3 7.7,17 11,17 C14.3,17 17,14.3 17,11 C17,7.7 14.3,5 11,5 C7.7,5 5,7.7 5,11" id="Path" fill="#FFEB3B"></path>
                        <path d="M32.9,16.1 C33,15.7 33,15.4 33,15 C33,11.1 29.9,8 26,8 C23.2,8 20.8,9.6 19.7,12 C18.7,10.8 17.2,10 15.5,10 C12.5,10 10,12.5 10,15.5 C10,15.7 10,15.8 10,16 C10,16 10,16 10,16 C6.7,16 4,18.7 4,22 C4,25.3 6.7,28 10,28 C10,28 10.1,28 10.1,28 C10.1,28 10.1,28 10.1,28 L32,28 C35.3,28 38,25.3 38,22 C38,19 35.8,16.5 32.9,16.1 Z" id="Path" fill="#FFFFFF"></path>
                    </g>
                </g>
            </g>
        </g>
    </g>
</svg>